<?xml version="1.0" encoding="UTF-8" standalone="no"?>
<!DOCTYPE svg PUBLIC "-//W3C//DTD SVG 1.1//EN"
 "http://www.w3.org/Graphics/SVG/1.1/DTD/svg11.dtd">
<!-- Generated by graphviz version 2.40.1 (20161225.0304)
 -->
<!-- Title: posts Pages: 1 -->
<svg width="488pt" height="562pt"
 viewBox="0.00 0.00 488.00 562.00" xmlns="http://www.w3.org/2000/svg" xmlns:xlink="http://www.w3.org/1999/xlink">
<g id="graph0" class="graph" transform="scale(1 1) rotate(0) translate(4 558)">
<title>posts</title>
<polygon fill="#ffffff" stroke="transparent" points="-4,4 -4,-558 484,-558 484,4 -4,4"/>
<!-- posts -->
<g id="node1" class="node">
<title>posts</title>
<polygon fill="#efefef" stroke="transparent" points="63,-225.5 63,-260.5 221,-260.5 221,-225.5 63,-225.5"/>
<polygon fill="none" stroke="#000000" points="63,-225.5 63,-260.5 221,-260.5 221,-225.5 63,-225.5"/>
<text text-anchor="start" x="71.8658" y="-238.3" font-family="Arial Bold" font-size="18.00" fill="#000000">posts</text>
<text text-anchor="start" x="114.8804" y="-238.3" font-family="Arial" font-size="14.00" fill="#000000"> </text>
<text text-anchor="start" x="118.771" y="-238.3" font-family="Arial" font-size="14.00" fill="#666666">[BASE TABLE]</text>
<polygon fill="none" stroke="#000000" points="63,-195.5 63,-225.5 221,-225.5 221,-195.5 63,-195.5"/>
<text text-anchor="start" x="70" y="-206.9" font-family="Arial" font-size="14.00" fill="#000000">id </text>
<text text-anchor="start" x="84.7798" y="-206.9" font-family="Arial" font-size="14.00" fill="#666666">[varchar(255)]</text>
<polygon fill="none" stroke="#000000" points="63,-165.5 63,-195.5 221,-195.5 221,-165.5 63,-165.5"/>
<text text-anchor="start" x="70" y="-176.9" font-family="Arial" font-size="14.00" fill="#000000">title </text>
<text text-anchor="start" x="95.6676" y="-176.9" font-family="Arial" font-size="14.00" fill="#666666">[varchar(255)]</text>
<polygon fill="none" stroke="#000000" points="63,-135.5 63,-165.5 221,-165.5 221,-135.5 63,-135.5"/>
<text text-anchor="start" x="70" y="-146.9" font-family="Arial" font-size="14.00" fill="#000000">content </text>
<text text-anchor="start" x="119.8022" y="-146.9" font-family="Arial" font-size="14.00" fill="#666666">[longtext]</text>
<polygon fill="none" stroke="#000000" points="63,-105.5 63,-135.5 221,-135.5 221,-105.5 63,-105.5"/>
<text text-anchor="start" x="70" y="-116.9" font-family="Arial" font-size="14.00" fill="#000000">slug </text>
<text text-anchor="start" x="99.5624" y="-116.9" font-family="Arial" font-size="14.00" fill="#666666">[varchar(255)]</text>
<polygon fill="none" stroke="#000000" points="63,-75.5 63,-105.5 221,-105.5 221,-75.5 63,-75.5"/>
<text text-anchor="start" x="70" y="-86.9" font-family="Arial" font-size="14.00" fill="#000000">draft </text>
<text text-anchor="start" x="101.8976" y="-86.9" font-family="Arial" font-size="14.00" fill="#666666">[tinyint(1)]</text>
<polygon fill="none" stroke="#000000" points="63,-45.5 63,-75.5 221,-75.5 221,-45.5 63,-45.5"/>
<text text-anchor="start" x="69.6424" y="-56.9" font-family="Arial" font-size="14.00" fill="#000000">published_at </text>
<text text-anchor="start" x="152.8976" y="-56.9" font-family="Arial" font-size="14.00" fill="#666666">[datetime]</text>
<polygon fill="none" stroke="#000000" stroke-width="3" points="61.5,-44.5 61.5,-262.5 222.5,-262.5 222.5,-44.5 61.5,-44.5"/>
</g>
<!-- posts_tags -->
<g id="node2" class="node">
<title>posts_tags</title>
<polygon fill="#efefef" stroke="transparent" points="43,-475.5 43,-510.5 241,-510.5 241,-475.5 43,-475.5"/>
<polygon fill="none" stroke="#000000" points="43,-475.5 43,-510.5 241,-510.5 241,-475.5 43,-475.5"/>
<text text-anchor="start" x="49.8554" y="-488.3" font-family="Arial Bold" font-size="18.00" fill="#000000">posts_tags</text>
<text text-anchor="start" x="136.8908" y="-488.3" font-family="Arial" font-size="14.00" fill="#000000"> </text>
<text text-anchor="start" x="140.7814" y="-488.3" font-family="Arial" font-size="14.00" fill="#666666">[BASE TABLE]</text>
<polygon fill="none" stroke="#000000" points="43,-445.5 43,-475.5 241,-475.5 241,-445.5 43,-445.5"/>
<text text-anchor="start" x="50" y="-456.9" font-family="Arial" font-size="14.00" fill="#000000">id </text>
<text text-anchor="start" x="64.7798" y="-456.9" font-family="Arial" font-size="14.00" fill="#666666">[varchar(255)]</text>
<polygon fill="none" stroke="#000000" points="43,-415.5 43,-445.5 241,-445.5 241,-415.5 43,-415.5"/>
<text text-anchor="start" x="50" y="-426.9" font-family="Arial" font-size="14.00" fill="#000000">post_id </text>
<text text-anchor="start" x="99.0182" y="-426.9" font-family="Arial" font-size="14.00" fill="#666666">[varchar(255)]</text>
<polygon fill="none" stroke="#000000" points="43,-385.5 43,-415.5 241,-415.5 241,-385.5 43,-385.5"/>
<text text-anchor="start" x="50" y="-396.9" font-family="Arial" font-size="14.00" fill="#000000">tag_id </text>
<text text-anchor="start" x="92.0182" y="-396.9" font-family="Arial" font-size="14.00" fill="#666666">[varchar(255)]</text>
</g>
<!-- posts_tags&#45;&gt;posts -->
<g id="edge1" class="edge">
<title>posts_tags:post_id&#45;&gt;posts:id</title>
<path fill="none" stroke="#000000" d="M251.1817,-429.6591C337.6336,-414.8888 315.6334,-210.5 221,-210.5"/>
<polygon fill="#000000" stroke="#000000" points="250.9661,-429.6768 240.6296,-426.0153 245.983,-430.0884 241,-430.5 241,-430.5 241,-430.5 245.983,-430.0884 241.3704,-434.9847 250.9661,-429.6768 250.9661,-429.6768"/>
<text text-anchor="start" x="248.495" y="-440.5" font-family="Arial" font-size="10.00" fill="#000000">FOREIGN KEY (post_id) REFERENCES posts (id)</text>
</g>
</g>
</svg>
