<?xml version="1.0" encoding="UTF-8" standalone="no"?>
<!DOCTYPE svg PUBLIC "-//W3C//DTD SVG 1.1//EN"
 "http://www.w3.org/Graphics/SVG/1.1/DTD/svg11.dtd">
<!-- Generated by graphviz version 2.40.1 (20161225.0304)
 -->
<!-- Title: posts_tags Pages: 1 -->
<svg width="674pt" height="562pt"
 viewBox="0.00 0.00 674.00 562.00" xmlns="http://www.w3.org/2000/svg" xmlns:xlink="http://www.w3.org/1999/xlink">
<g id="graph0" class="graph" transform="scale(1 1) rotate(0) translate(4 558)">
<title>posts_tags</title>
<polygon fill="#ffffff" stroke="transparent" points="-4,4 -4,-558 670,-558 670,4 -4,4"/>
<!-- posts_tags -->
<g id="node1" class="node">
<title>posts_tags</title>
<polygon fill="#efefef" stroke="transparent" points="239,-472.5 239,-507.5 437,-507.5 437,-472.5 239,-472.5"/>
<polygon fill="none" stroke="#000000" points="239,-472.5 239,-507.5 437,-507.5 437,-472.5 239,-472.5"/>
<text text-anchor="start" x="245.8554" y="-485.3" font-family="Arial Bold" font-size="18.00" fill="#000000">posts_tags</text>
<text text-anchor="start" x="332.8908" y="-485.3" font-family="Arial" font-size="14.00" fill="#000000"> </text>
<text text-anchor="start" x="336.7814" y="-485.3" font-family="Arial" font-size="14.00" fill="#666666">[BASE TABLE]</text>
<polygon fill="none" stroke="#000000" points="239,-442.5 239,-472.5 437,-472.5 437,-442.5 239,-442.5"/>
<text text-anchor="start" x="246" y="-453.9" font-family="Arial" font-size="14.00" fill="#000000">id </text>
<text text-anchor="start" x="260.7798" y="-453.9" font-family="Arial" font-size="14.00" fill="#666666">[varchar(255)]</text>
<polygon fill="none" stroke="#000000" points="239,-412.5 239,-442.5 437,-442.5 437,-412.5 239,-412.5"/>
<text text-anchor="start" x="246" y="-423.9" font-family="Arial" font-size="14.00" fill="#000000">post_id </text>
<text text-anchor="start" x="295.0182" y="-423.9" font-family="Arial" font-size="14.00" fill="#666666">[varchar(255)]</text>
<polygon fill="none" stroke="#000000" points="239,-382.5 239,-412.5 437,-412.5 437,-382.5 239,-382.5"/>
<text text-anchor="start" x="246" y="-393.9" font-family="Arial" font-size="14.00" fill="#000000">tag_id </text>
<text text-anchor="start" x="288.0182" y="-393.9" font-family="Arial" font-size="14.00" fill="#666666">[varchar(255)]</text>
<polygon fill="none" stroke="#000000" stroke-width="3" points="237.5,-381.5 237.5,-509.5 438.5,-509.5 438.5,-381.5 237.5,-381.5"/>
</g>
<!-- posts -->
<g id="node2" class="node">
<title>posts</title>
<polygon fill="#efefef" stroke="transparent" points="131,-222.5 131,-257.5 289,-257.5 289,-222.5 131,-222.5"/>
<polygon fill="none" stroke="#000000" points="131,-222.5 131,-257.5 289,-257.5 289,-222.5 131,-222.5"/>
<text text-anchor="start" x="139.8658" y="-235.3" font-family="Arial Bold" font-size="18.00" fill="#000000">posts</text>
<text text-anchor="start" x="182.8804" y="-235.3" font-family="Arial" font-size="14.00" fill="#000000"> </text>
<text text-anchor="start" x="186.771" y="-235.3" font-family="Arial" font-size="14.00" fill="#666666">[BASE TABLE]</text>
<polygon fill="none" stroke="#000000" points="131,-192.5 131,-222.5 289,-222.5 289,-192.5 131,-192.5"/>
<text text-anchor="start" x="138" y="-203.9" font-family="Arial" font-size="14.00" fill="#000000">id </text>
<text text-anchor="start" x="152.7798" y="-203.9" font-family="Arial" font-size="14.00" fill="#666666">[varchar(255)]</text>
<polygon fill="none" stroke="#000000" points="131,-162.5 131,-192.5 289,-192.5 289,-162.5 131,-162.5"/>
<text text-anchor="start" x="138" y="-173.9" font-family="Arial" font-size="14.00" fill="#000000">title </text>
<text text-anchor="start" x="163.6676" y="-173.9" font-family="Arial" font-size="14.00" fill="#666666">[varchar(255)]</text>
<polygon fill="none" stroke="#000000" points="131,-132.5 131,-162.5 289,-162.5 289,-132.5 131,-132.5"/>
<text text-anchor="start" x="138" y="-143.9" font-family="Arial" font-size="14.00" fill="#000000">content </text>
<text text-anchor="start" x="187.8022" y="-143.9" font-family="Arial" font-size="14.00" fill="#666666">[longtext]</text>
<polygon fill="none" stroke="#000000" points="131,-102.5 131,-132.5 289,-132.5 289,-102.5 131,-102.5"/>
<text text-anchor="start" x="138" y="-113.9" font-family="Arial" font-size="14.00" fill="#000000">slug </text>
<text text-anchor="start" x="167.5624" y="-113.9" font-family="Arial" font-size="14.00" fill="#666666">[varchar(255)]</text>
<polygon fill="none" stroke="#000000" points="131,-72.5 131,-102.5 289,-102.5 289,-72.5 131,-72.5"/>
<text text-anchor="start" x="138" y="-83.9" font-family="Arial" font-size="14.00" fill="#000000">draft </text>
<text text-anchor="start" x="169.8976" y="-83.9" font-family="Arial" font-size="14.00" fill="#666666">[tinyint(1)]</text>
<polygon fill="none" stroke="#000000" points="131,-42.5 131,-72.5 289,-72.5 289,-42.5 131,-42.5"/>
<text text-anchor="start" x="137.6424" y="-53.9" font-family="Arial" font-size="14.00" fill="#000000">published_at </text>
<text text-anchor="start" x="220.8976" y="-53.9" font-family="Arial" font-size="14.00" fill="#666666">[datetime]</text>
</g>
<!-- posts_tags&#45;&gt;posts -->
<g id="edge1" class="edge">
<title>posts_tags:post_id&#45;&gt;posts:id</title>
<path fill="none" stroke="#000000" d="M228.9319,-426.0035C203.0183,-416.9965 222.4533,-369.303 239,-337 251.484,-312.6283 276.516,-325.3717 289,-301 307.9453,-264.0143 330.5556,-207.5 289,-207.5"/>
<polygon fill="#000000" stroke="#000000" points="229.1087,-426.0297 238.3384,-431.9511 234.0543,-426.7649 239,-427.5 239,-427.5 239,-427.5 234.0543,-426.7649 239.6616,-423.0489 229.1087,-426.0297 229.1087,-426.0297"/>
<text text-anchor="start" x="7.495" y="-437.5" font-family="Arial" font-size="10.00" fill="#000000">FOREIGN KEY (post_id) REFERENCES posts (id)</text>
</g>
<!-- tags -->
<g id="node3" class="node">
<title>tags</title>
<polygon fill="#efefef" stroke="transparent" points="394,-162.5 394,-197.5 539,-197.5 539,-162.5 394,-162.5"/>
<polygon fill="none" stroke="#000000" points="394,-162.5 394,-197.5 539,-197.5 539,-162.5 394,-162.5"/>
<text text-anchor="start" x="400.8658" y="-175.3" font-family="Arial Bold" font-size="18.00" fill="#000000">tags</text>
<text text-anchor="start" x="434.8804" y="-175.3" font-family="Arial" font-size="14.00" fill="#000000"> </text>
<text text-anchor="start" x="438.771" y="-175.3" font-family="Arial" font-size="14.00" fill="#666666">[BASE TABLE]</text>
<polygon fill="none" stroke="#000000" points="394,-132.5 394,-162.5 539,-162.5 539,-132.5 394,-132.5"/>
<text text-anchor="start" x="401" y="-143.9" font-family="Arial" font-size="14.00" fill="#000000">id </text>
<text text-anchor="start" x="415.7798" y="-143.9" font-family="Arial" font-size="14.00" fill="#666666">[varchar(255)]</text>
<polygon fill="none" stroke="#000000" points="394,-102.5 394,-132.5 539,-132.5 539,-102.5 394,-102.5"/>
<text text-anchor="start" x="401" y="-113.9" font-family="Arial" font-size="14.00" fill="#000000">name </text>
<text text-anchor="start" x="439.899" y="-113.9" font-family="Arial" font-size="14.00" fill="#666666">[varchar(255)]</text>
</g>
<!-- posts_tags&#45;&gt;tags -->
<g id="edge2" class="edge">
<title>posts_tags:tag_id&#45;&gt;tags:id</title>
<path fill="none" stroke="#000000" d="M446.9207,-394.6825C457.04,-385.9757 441.654,-358.7756 437,-337 418.9494,-252.5441 307.6367,-147.5 394,-147.5"/>
<polygon fill="#000000" stroke="#000000" points="446.6196,-394.7679 435.7706,-393.1712 441.8098,-396.134 437,-397.5 437,-397.5 437,-397.5 441.8098,-396.134 438.2294,-401.8288 446.6196,-394.7679 446.6196,-394.7679"/>
<text text-anchor="start" x="444.495" y="-407.5" font-family="Arial" font-size="10.00" fill="#000000">FOREIGN KEY (tag_id) REFERENCES tags (id)</text>
</g>
</g>
</svg>
