<?xml version="1.0" encoding="UTF-8" standalone="no"?>
<!DOCTYPE svg PUBLIC "-//W3C//DTD SVG 1.1//EN"
 "http://www.w3.org/Graphics/SVG/1.1/DTD/svg11.dtd">
<!-- Generated by graphviz version 2.40.1 (20161225.0304)
 -->
<!-- Title: posts_tags Pages: 1 -->
<svg width="674pt" height="682pt"
 viewBox="0.00 0.00 674.00 682.00" xmlns="http://www.w3.org/2000/svg" xmlns:xlink="http://www.w3.org/1999/xlink">
<g id="graph0" class="graph" transform="scale(1 1) rotate(0) translate(4 678)">
<title>posts_tags</title>
<polygon fill="#ffffff" stroke="transparent" points="-4,4 -4,-678 670,-678 670,4 -4,4"/>
<!-- posts_tags -->
<g id="node1" class="node">
<title>posts_tags</title>
<polygon fill="#efefef" stroke="transparent" points="239,-592.5 239,-627.5 437,-627.5 437,-592.5 239,-592.5"/>
<polygon fill="none" stroke="#000000" points="239,-592.5 239,-627.5 437,-627.5 437,-592.5 239,-592.5"/>
<text text-anchor="start" x="245.8554" y="-605.3" font-family="Arial Bold" font-size="18.00" fill="#000000">posts_tags</text>
<text text-anchor="start" x="332.8908" y="-605.3" font-family="Arial" font-size="14.00" fill="#000000"> </text>
<text text-anchor="start" x="336.7814" y="-605.3" font-family="Arial" font-size="14.00" fill="#666666">[BASE TABLE]</text>
<polygon fill="none" stroke="#000000" points="239,-562.5 239,-592.5 437,-592.5 437,-562.5 239,-562.5"/>
<text text-anchor="start" x="246" y="-573.9" font-family="Arial" font-size="14.00" fill="#000000">id </text>
<text text-anchor="start" x="260.7798" y="-573.9" font-family="Arial" font-size="14.00" fill="#666666">[int]</text>
<polygon fill="none" stroke="#000000" points="239,-532.5 239,-562.5 437,-562.5 437,-532.5 239,-532.5"/>
<text text-anchor="start" x="246" y="-543.9" font-family="Arial" font-size="14.00" fill="#000000">post_id </text>
<text text-anchor="start" x="295.0182" y="-543.9" font-family="Arial" font-size="14.00" fill="#666666">[int]</text>
<polygon fill="none" stroke="#000000" points="239,-502.5 239,-532.5 437,-532.5 437,-502.5 239,-502.5"/>
<text text-anchor="start" x="246" y="-513.9" font-family="Arial" font-size="14.00" fill="#000000">tag_id </text>
<text text-anchor="start" x="288.0182" y="-513.9" font-family="Arial" font-size="14.00" fill="#666666">[int]</text>
<polygon fill="none" stroke="#000000" points="239,-472.5 239,-502.5 437,-502.5 437,-472.5 239,-472.5"/>
<text text-anchor="start" x="246" y="-483.9" font-family="Arial" font-size="14.00" fill="#000000">created_at </text>
<text text-anchor="start" x="316.028" y="-483.9" font-family="Arial" font-size="14.00" fill="#666666">[datetime]</text>
<polygon fill="none" stroke="#000000" points="239,-442.5 239,-472.5 437,-472.5 437,-442.5 239,-442.5"/>
<text text-anchor="start" x="246" y="-453.9" font-family="Arial" font-size="14.00" fill="#000000">updated_at </text>
<text text-anchor="start" x="319.9326" y="-453.9" font-family="Arial" font-size="14.00" fill="#666666">[datetime]</text>
<polygon fill="none" stroke="#000000" stroke-width="3" points="237.5,-441.5 237.5,-629.5 438.5,-629.5 438.5,-441.5 237.5,-441.5"/>
</g>
<!-- posts -->
<g id="node2" class="node">
<title>posts</title>
<polygon fill="#efefef" stroke="transparent" points="130,-282.5 130,-317.5 288,-317.5 288,-282.5 130,-282.5"/>
<polygon fill="none" stroke="#000000" points="130,-282.5 130,-317.5 288,-317.5 288,-282.5 130,-282.5"/>
<text text-anchor="start" x="138.8658" y="-295.3" font-family="Arial Bold" font-size="18.00" fill="#000000">posts</text>
<text text-anchor="start" x="181.8804" y="-295.3" font-family="Arial" font-size="14.00" fill="#000000"> </text>
<text text-anchor="start" x="185.771" y="-295.3" font-family="Arial" font-size="14.00" fill="#666666">[BASE TABLE]</text>
<polygon fill="none" stroke="#000000" points="130,-252.5 130,-282.5 288,-282.5 288,-252.5 130,-252.5"/>
<text text-anchor="start" x="137" y="-263.9" font-family="Arial" font-size="14.00" fill="#000000">id </text>
<text text-anchor="start" x="151.7798" y="-263.9" font-family="Arial" font-size="14.00" fill="#666666">[int]</text>
<polygon fill="none" stroke="#000000" points="130,-222.5 130,-252.5 288,-252.5 288,-222.5 130,-222.5"/>
<text text-anchor="start" x="137" y="-233.9" font-family="Arial" font-size="14.00" fill="#000000">title </text>
<text text-anchor="start" x="162.6676" y="-233.9" font-family="Arial" font-size="14.00" fill="#666666">[varchar(255)]</text>
<polygon fill="none" stroke="#000000" points="130,-192.5 130,-222.5 288,-222.5 288,-192.5 130,-192.5"/>
<text text-anchor="start" x="137" y="-203.9" font-family="Arial" font-size="14.00" fill="#000000">content </text>
<text text-anchor="start" x="186.8022" y="-203.9" font-family="Arial" font-size="14.00" fill="#666666">[longtext]</text>
<polygon fill="none" stroke="#000000" points="130,-162.5 130,-192.5 288,-192.5 288,-162.5 130,-162.5"/>
<text text-anchor="start" x="137" y="-173.9" font-family="Arial" font-size="14.00" fill="#000000">slug </text>
<text text-anchor="start" x="166.5624" y="-173.9" font-family="Arial" font-size="14.00" fill="#666666">[varchar(255)]</text>
<polygon fill="none" stroke="#000000" points="130,-132.5 130,-162.5 288,-162.5 288,-132.5 130,-132.5"/>
<text text-anchor="start" x="137" y="-143.9" font-family="Arial" font-size="14.00" fill="#000000">draft </text>
<text text-anchor="start" x="168.8976" y="-143.9" font-family="Arial" font-size="14.00" fill="#666666">[tinyint(1)]</text>
<polygon fill="none" stroke="#000000" points="130,-102.5 130,-132.5 288,-132.5 288,-102.5 130,-102.5"/>
<text text-anchor="start" x="137" y="-113.9" font-family="Arial" font-size="14.00" fill="#000000">created_at </text>
<text text-anchor="start" x="207.028" y="-113.9" font-family="Arial" font-size="14.00" fill="#666666">[datetime]</text>
<polygon fill="none" stroke="#000000" points="130,-72.5 130,-102.5 288,-102.5 288,-72.5 130,-72.5"/>
<text text-anchor="start" x="137" y="-83.9" font-family="Arial" font-size="14.00" fill="#000000">updated_at </text>
<text text-anchor="start" x="210.9326" y="-83.9" font-family="Arial" font-size="14.00" fill="#666666">[datetime]</text>
<polygon fill="none" stroke="#000000" points="130,-42.5 130,-72.5 288,-72.5 288,-42.5 130,-42.5"/>
<text text-anchor="start" x="136.6424" y="-53.9" font-family="Arial" font-size="14.00" fill="#000000">published_at </text>
<text text-anchor="start" x="219.8976" y="-53.9" font-family="Arial" font-size="14.00" fill="#666666">[datetime]</text>
</g>
<!-- posts_tags&#45;&gt;posts -->
<g id="edge1" class="edge">
<title>posts_tags:post_id&#45;&gt;posts:id</title>
<path fill="none" stroke="#000000" d="M228.6963,-547.4256C-53.5375,-543.2561 285.8064,-365.3336 288,-361 306.7674,-323.9237 329.5556,-267.5 288,-267.5"/>
<polygon fill="#000000" stroke="#000000" points="229.0003,-547.4277 238.9674,-551.9999 234.0001,-547.4638 239,-547.5 239,-547.5 239,-547.5 234.0001,-547.4638 239.0326,-543.0001 229.0003,-547.4277 229.0003,-547.4277"/>
<text text-anchor="start" x="7.495" y="-557.5" font-family="Arial" font-size="10.00" fill="#000000">FOREIGN KEY (post_id) REFERENCES posts (id)</text>
</g>
<!-- tags -->
<g id="node3" class="node">
<title>tags</title>
<polygon fill="#efefef" stroke="transparent" points="393,-222.5 393,-257.5 542,-257.5 542,-222.5 393,-222.5"/>
<polygon fill="none" stroke="#000000" points="393,-222.5 393,-257.5 542,-257.5 542,-222.5 393,-222.5"/>
<text text-anchor="start" x="401.8658" y="-235.3" font-family="Arial Bold" font-size="18.00" fill="#000000">tags</text>
<text text-anchor="start" x="435.8804" y="-235.3" font-family="Arial" font-size="14.00" fill="#000000"> </text>
<text text-anchor="start" x="439.771" y="-235.3" font-family="Arial" font-size="14.00" fill="#666666">[BASE TABLE]</text>
<polygon fill="none" stroke="#000000" points="393,-192.5 393,-222.5 542,-222.5 542,-192.5 393,-192.5"/>
<text text-anchor="start" x="400" y="-203.9" font-family="Arial" font-size="14.00" fill="#000000">id </text>
<text text-anchor="start" x="414.7798" y="-203.9" font-family="Arial" font-size="14.00" fill="#666666">[int]</text>
<polygon fill="none" stroke="#000000" points="393,-162.5 393,-192.5 542,-192.5 542,-162.5 393,-162.5"/>
<text text-anchor="start" x="400" y="-173.9" font-family="Arial" font-size="14.00" fill="#000000">name </text>
<text text-anchor="start" x="438.899" y="-173.9" font-family="Arial" font-size="14.00" fill="#666666">[varchar(255)]</text>
<polygon fill="none" stroke="#000000" points="393,-132.5 393,-162.5 542,-162.5 542,-132.5 393,-132.5"/>
<text text-anchor="start" x="400" y="-143.9" font-family="Arial" font-size="14.00" fill="#000000">created_at </text>
<text text-anchor="start" x="470.028" y="-143.9" font-family="Arial" font-size="14.00" fill="#666666">[datetime]</text>
<polygon fill="none" stroke="#000000" points="393,-102.5 393,-132.5 542,-132.5 542,-102.5 393,-102.5"/>
<text text-anchor="start" x="399.8037" y="-113.9" font-family="Arial" font-size="14.00" fill="#000000">updated_at </text>
<text text-anchor="start" x="473.7363" y="-113.9" font-family="Arial" font-size="14.00" fill="#666666">[datetime]</text>
</g>
<!-- posts_tags&#45;&gt;tags -->
<g id="edge2" class="edge">
<title>posts_tags:tag_id&#45;&gt;tags:id</title>
<path fill="none" stroke="#000000" d="M447.394,-516.4626C519.7373,-500.5175 394.099,-306.0355 393,-301 384.1391,-260.4001 351.4444,-207.5 393,-207.5"/>
<polygon fill="#000000" stroke="#000000" points="446.9506,-516.5068 436.5531,-513.0222 441.9753,-517.0034 437,-517.5 437,-517.5 437,-517.5 441.9753,-517.0034 437.4469,-521.9778 446.9506,-516.5068 446.9506,-516.5068"/>
<text text-anchor="start" x="444.495" y="-527.5" font-family="Arial" font-size="10.00" fill="#000000">FOREIGN KEY (tag_id) REFERENCES tags (id)</text>
</g>
</g>
</svg>
