<?xml version="1.0" encoding="UTF-8" standalone="no"?>
<!DOCTYPE svg PUBLIC "-//W3C//DTD SVG 1.1//EN"
 "http://www.w3.org/Graphics/SVG/1.1/DTD/svg11.dtd">
<!-- Generated by graphviz version 2.40.1 (20161225.0304)
 -->
<!-- Title: blog_local Pages: 1 -->
<svg width="1128pt" height="556pt"
 viewBox="0.00 0.00 1128.00 556.00" xmlns="http://www.w3.org/2000/svg" xmlns:xlink="http://www.w3.org/1999/xlink">
<g id="graph0" class="graph" transform="scale(1 1) rotate(0) translate(4 552)">
<title>blog_local</title>
<polygon fill="#ffffff" stroke="transparent" points="-4,4 -4,-552 1124,-552 1124,4 -4,4"/>
<!-- posts -->
<g id="node1" class="node">
<title>posts</title>
<polygon fill="#efefef" stroke="transparent" points="131,-222.5 131,-257.5 289,-257.5 289,-222.5 131,-222.5"/>
<polygon fill="none" stroke="#000000" points="131,-222.5 131,-257.5 289,-257.5 289,-222.5 131,-222.5"/>
<text text-anchor="start" x="139.8658" y="-235.3" font-family="Arial Bold" font-size="18.00" fill="#000000">posts</text>
<text text-anchor="start" x="182.8804" y="-235.3" font-family="Arial" font-size="14.00" fill="#000000"> </text>
<text text-anchor="start" x="186.771" y="-235.3" font-family="Arial" font-size="14.00" fill="#666666">[BASE TABLE]</text>
<polygon fill="none" stroke="#000000" points="131,-192.5 131,-222.5 289,-222.5 289,-192.5 131,-192.5"/>
<text text-anchor="start" x="138" y="-203.9" font-family="Arial" font-size="14.00" fill="#000000">id </text>
<text text-anchor="start" x="152.7798" y="-203.9" font-family="Arial" font-size="14.00" fill="#666666">[varchar(255)]</text>
<polygon fill="none" stroke="#000000" points="131,-162.5 131,-192.5 289,-192.5 289,-162.5 131,-162.5"/>
<text text-anchor="start" x="138" y="-173.9" font-family="Arial" font-size="14.00" fill="#000000">title </text>
<text text-anchor="start" x="163.6676" y="-173.9" font-family="Arial" font-size="14.00" fill="#666666">[varchar(255)]</text>
<polygon fill="none" stroke="#000000" points="131,-132.5 131,-162.5 289,-162.5 289,-132.5 131,-132.5"/>
<text text-anchor="start" x="138" y="-143.9" font-family="Arial" font-size="14.00" fill="#000000">content </text>
<text text-anchor="start" x="187.8022" y="-143.9" font-family="Arial" font-size="14.00" fill="#666666">[longtext]</text>
<polygon fill="none" stroke="#000000" points="131,-102.5 131,-132.5 289,-132.5 289,-102.5 131,-102.5"/>
<text text-anchor="start" x="138" y="-113.9" font-family="Arial" font-size="14.00" fill="#000000">slug </text>
<text text-anchor="start" x="167.5624" y="-113.9" font-family="Arial" font-size="14.00" fill="#666666">[varchar(255)]</text>
<polygon fill="none" stroke="#000000" points="131,-72.5 131,-102.5 289,-102.5 289,-72.5 131,-72.5"/>
<text text-anchor="start" x="138" y="-83.9" font-family="Arial" font-size="14.00" fill="#000000">draft </text>
<text text-anchor="start" x="169.8976" y="-83.9" font-family="Arial" font-size="14.00" fill="#666666">[tinyint(1)]</text>
<polygon fill="none" stroke="#000000" points="131,-42.5 131,-72.5 289,-72.5 289,-42.5 131,-42.5"/>
<text text-anchor="start" x="137.6424" y="-53.9" font-family="Arial" font-size="14.00" fill="#000000">published_at </text>
<text text-anchor="start" x="220.8976" y="-53.9" font-family="Arial" font-size="14.00" fill="#666666">[datetime]</text>
</g>
<!-- posts_tags -->
<g id="node2" class="node">
<title>posts_tags</title>
<polygon fill="#efefef" stroke="transparent" points="239,-469.5 239,-504.5 437,-504.5 437,-469.5 239,-469.5"/>
<polygon fill="none" stroke="#000000" points="239,-469.5 239,-504.5 437,-504.5 437,-469.5 239,-469.5"/>
<text text-anchor="start" x="245.8554" y="-482.3" font-family="Arial Bold" font-size="18.00" fill="#000000">posts_tags</text>
<text text-anchor="start" x="332.8908" y="-482.3" font-family="Arial" font-size="14.00" fill="#000000"> </text>
<text text-anchor="start" x="336.7814" y="-482.3" font-family="Arial" font-size="14.00" fill="#666666">[BASE TABLE]</text>
<polygon fill="none" stroke="#000000" points="239,-439.5 239,-469.5 437,-469.5 437,-439.5 239,-439.5"/>
<text text-anchor="start" x="246" y="-450.9" font-family="Arial" font-size="14.00" fill="#000000">id </text>
<text text-anchor="start" x="260.7798" y="-450.9" font-family="Arial" font-size="14.00" fill="#666666">[varchar(255)]</text>
<polygon fill="none" stroke="#000000" points="239,-409.5 239,-439.5 437,-439.5 437,-409.5 239,-409.5"/>
<text text-anchor="start" x="246" y="-420.9" font-family="Arial" font-size="14.00" fill="#000000">post_id </text>
<text text-anchor="start" x="295.0182" y="-420.9" font-family="Arial" font-size="14.00" fill="#666666">[varchar(255)]</text>
<polygon fill="none" stroke="#000000" points="239,-379.5 239,-409.5 437,-409.5 437,-379.5 239,-379.5"/>
<text text-anchor="start" x="246" y="-390.9" font-family="Arial" font-size="14.00" fill="#000000">tag_id </text>
<text text-anchor="start" x="288.0182" y="-390.9" font-family="Arial" font-size="14.00" fill="#666666">[varchar(255)]</text>
</g>
<!-- posts_tags&#45;&gt;posts -->
<g id="edge1" class="edge">
<title>posts_tags:post_id&#45;&gt;posts:id</title>
<path fill="none" stroke="#000000" d="M228.9427,-422.9379C204.3737,-413.9457 223.0711,-368.0969 239,-337 251.484,-312.6283 276.516,-325.3717 289,-301 307.9453,-264.0143 330.5556,-207.5 289,-207.5"/>
<polygon fill="#000000" stroke="#000000" points="229.1185,-422.9652 238.3093,-428.9467 234.0592,-423.7326 239,-424.5 239,-424.5 239,-424.5 234.0592,-423.7326 239.6907,-420.0533 229.1185,-422.9652 229.1185,-422.9652"/>
<text text-anchor="start" x="7.495" y="-434.5" font-family="Arial" font-size="10.00" fill="#000000">FOREIGN KEY (post_id) REFERENCES posts (id)</text>
</g>
<!-- tags -->
<g id="node4" class="node">
<title>tags</title>
<polygon fill="#efefef" stroke="transparent" points="394,-162.5 394,-197.5 539,-197.5 539,-162.5 394,-162.5"/>
<polygon fill="none" stroke="#000000" points="394,-162.5 394,-197.5 539,-197.5 539,-162.5 394,-162.5"/>
<text text-anchor="start" x="400.8658" y="-175.3" font-family="Arial Bold" font-size="18.00" fill="#000000">tags</text>
<text text-anchor="start" x="434.8804" y="-175.3" font-family="Arial" font-size="14.00" fill="#000000"> </text>
<text text-anchor="start" x="438.771" y="-175.3" font-family="Arial" font-size="14.00" fill="#666666">[BASE TABLE]</text>
<polygon fill="none" stroke="#000000" points="394,-132.5 394,-162.5 539,-162.5 539,-132.5 394,-132.5"/>
<text text-anchor="start" x="401" y="-143.9" font-family="Arial" font-size="14.00" fill="#000000">id </text>
<text text-anchor="start" x="415.7798" y="-143.9" font-family="Arial" font-size="14.00" fill="#666666">[varchar(255)]</text>
<polygon fill="none" stroke="#000000" points="394,-102.5 394,-132.5 539,-132.5 539,-102.5 394,-102.5"/>
<text text-anchor="start" x="401" y="-113.9" font-family="Arial" font-size="14.00" fill="#000000">name </text>
<text text-anchor="start" x="439.899" y="-113.9" font-family="Arial" font-size="14.00" fill="#666666">[varchar(255)]</text>
</g>
<!-- posts_tags&#45;&gt;tags -->
<g id="edge2" class="edge">
<title>posts_tags:tag_id&#45;&gt;tags:id</title>
<path fill="none" stroke="#000000" d="M446.6945,-391.5833C455.7713,-383.0599 441.3815,-357.5005 437,-337 418.9494,-252.5441 307.6367,-147.5 394,-147.5"/>
<polygon fill="#000000" stroke="#000000" points="446.576,-391.6189 435.7035,-390.1908 441.788,-393.0594 437,-394.5 437,-394.5 437,-394.5 441.788,-393.0594 438.2965,-398.8092 446.576,-391.6189 446.576,-391.6189"/>
<text text-anchor="start" x="444.495" y="-404.5" font-family="Arial" font-size="10.00" fill="#000000">FOREIGN KEY (tag_id) REFERENCES tags (id)</text>
</g>
<!-- schema_migrations -->
<g id="node3" class="node">
<title>schema_migrations</title>
<polygon fill="#efefef" stroke="transparent" points="542,-454.5 542,-489.5 809,-489.5 809,-454.5 542,-454.5"/>
<polygon fill="none" stroke="#000000" points="542,-454.5 542,-489.5 809,-489.5 809,-454.5 542,-454.5"/>
<text text-anchor="start" x="548.8647" y="-467.3" font-family="Arial Bold" font-size="18.00" fill="#000000">schema_migrations</text>
<text text-anchor="start" x="704.8815" y="-467.3" font-family="Arial" font-size="14.00" fill="#000000"> </text>
<text text-anchor="start" x="708.7721" y="-467.3" font-family="Arial" font-size="14.00" fill="#666666">[BASE TABLE]</text>
<polygon fill="none" stroke="#000000" points="542,-424.5 542,-454.5 809,-454.5 809,-424.5 542,-424.5"/>
<text text-anchor="start" x="549" y="-435.9" font-family="Arial" font-size="14.00" fill="#000000">version </text>
<text text-anchor="start" x="598.0056" y="-435.9" font-family="Arial" font-size="14.00" fill="#666666">[bigint]</text>
<polygon fill="none" stroke="#000000" points="542,-394.5 542,-424.5 809,-424.5 809,-394.5 542,-394.5"/>
<text text-anchor="start" x="549" y="-405.9" font-family="Arial" font-size="14.00" fill="#000000">dirty </text>
<text text-anchor="start" x="579.331" y="-405.9" font-family="Arial" font-size="14.00" fill="#666666">[tinyint(1)]</text>
</g>
<!-- users -->
<g id="node5" class="node">
<title>users</title>
<polygon fill="#efefef" stroke="transparent" points="913,-469.5 913,-504.5 1077,-504.5 1077,-469.5 913,-469.5"/>
<polygon fill="none" stroke="#000000" points="913,-469.5 913,-504.5 1077,-504.5 1077,-469.5 913,-469.5"/>
<text text-anchor="start" x="924.3708" y="-482.3" font-family="Arial Bold" font-size="18.00" fill="#000000">users</text>
<text text-anchor="start" x="968.3754" y="-482.3" font-family="Arial" font-size="14.00" fill="#000000"> </text>
<text text-anchor="start" x="972.266" y="-482.3" font-family="Arial" font-size="14.00" fill="#666666">[BASE TABLE]</text>
<polygon fill="none" stroke="#000000" points="913,-439.5 913,-469.5 1077,-469.5 1077,-439.5 913,-439.5"/>
<text text-anchor="start" x="920" y="-450.9" font-family="Arial" font-size="14.00" fill="#000000">id </text>
<text text-anchor="start" x="934.7798" y="-450.9" font-family="Arial" font-size="14.00" fill="#666666">[varchar(255)]</text>
<polygon fill="none" stroke="#000000" points="913,-409.5 913,-439.5 1077,-439.5 1077,-409.5 913,-409.5"/>
<text text-anchor="start" x="920" y="-420.9" font-family="Arial" font-size="14.00" fill="#000000">email </text>
<text text-anchor="start" x="957.3296" y="-420.9" font-family="Arial" font-size="14.00" fill="#666666">[varchar(255)]</text>
<polygon fill="none" stroke="#000000" points="913,-379.5 913,-409.5 1077,-409.5 1077,-379.5 913,-379.5"/>
<text text-anchor="start" x="919.5463" y="-390.9" font-family="Arial" font-size="14.00" fill="#000000">password </text>
<text text-anchor="start" x="983.3345" y="-390.9" font-family="Arial" font-size="14.00" fill="#666666">[varchar(255)]</text>
</g>
</g>
</svg>
