<?xml version="1.0" encoding="UTF-8" standalone="no"?>
<!DOCTYPE svg PUBLIC "-//W3C//DTD SVG 1.1//EN"
 "http://www.w3.org/Graphics/SVG/1.1/DTD/svg11.dtd">
<!-- Generated by graphviz version 2.40.1 (20161225.0304)
 -->
<!-- Title: blog_local Pages: 1 -->
<svg width="1128pt" height="676pt"
 viewBox="0.00 0.00 1128.00 676.00" xmlns="http://www.w3.org/2000/svg" xmlns:xlink="http://www.w3.org/1999/xlink">
<g id="graph0" class="graph" transform="scale(1 1) rotate(0) translate(4 672)">
<title>blog_local</title>
<polygon fill="#ffffff" stroke="transparent" points="-4,4 -4,-672 1124,-672 1124,4 -4,4"/>
<!-- posts -->
<g id="node1" class="node">
<title>posts</title>
<polygon fill="#efefef" stroke="transparent" points="130,-282.5 130,-317.5 288,-317.5 288,-282.5 130,-282.5"/>
<polygon fill="none" stroke="#000000" points="130,-282.5 130,-317.5 288,-317.5 288,-282.5 130,-282.5"/>
<text text-anchor="start" x="138.8658" y="-295.3" font-family="Arial Bold" font-size="18.00" fill="#000000">posts</text>
<text text-anchor="start" x="181.8804" y="-295.3" font-family="Arial" font-size="14.00" fill="#000000"> </text>
<text text-anchor="start" x="185.771" y="-295.3" font-family="Arial" font-size="14.00" fill="#666666">[BASE TABLE]</text>
<polygon fill="none" stroke="#000000" points="130,-252.5 130,-282.5 288,-282.5 288,-252.5 130,-252.5"/>
<text text-anchor="start" x="137" y="-263.9" font-family="Arial" font-size="14.00" fill="#000000">id </text>
<text text-anchor="start" x="151.7798" y="-263.9" font-family="Arial" font-size="14.00" fill="#666666">[int]</text>
<polygon fill="none" stroke="#000000" points="130,-222.5 130,-252.5 288,-252.5 288,-222.5 130,-222.5"/>
<text text-anchor="start" x="137" y="-233.9" font-family="Arial" font-size="14.00" fill="#000000">title </text>
<text text-anchor="start" x="162.6676" y="-233.9" font-family="Arial" font-size="14.00" fill="#666666">[varchar(255)]</text>
<polygon fill="none" stroke="#000000" points="130,-192.5 130,-222.5 288,-222.5 288,-192.5 130,-192.5"/>
<text text-anchor="start" x="137" y="-203.9" font-family="Arial" font-size="14.00" fill="#000000">content </text>
<text text-anchor="start" x="186.8022" y="-203.9" font-family="Arial" font-size="14.00" fill="#666666">[longtext]</text>
<polygon fill="none" stroke="#000000" points="130,-162.5 130,-192.5 288,-192.5 288,-162.5 130,-162.5"/>
<text text-anchor="start" x="137" y="-173.9" font-family="Arial" font-size="14.00" fill="#000000">slug </text>
<text text-anchor="start" x="166.5624" y="-173.9" font-family="Arial" font-size="14.00" fill="#666666">[varchar(255)]</text>
<polygon fill="none" stroke="#000000" points="130,-132.5 130,-162.5 288,-162.5 288,-132.5 130,-132.5"/>
<text text-anchor="start" x="137" y="-143.9" font-family="Arial" font-size="14.00" fill="#000000">draft </text>
<text text-anchor="start" x="168.8976" y="-143.9" font-family="Arial" font-size="14.00" fill="#666666">[tinyint(1)]</text>
<polygon fill="none" stroke="#000000" points="130,-102.5 130,-132.5 288,-132.5 288,-102.5 130,-102.5"/>
<text text-anchor="start" x="137" y="-113.9" font-family="Arial" font-size="14.00" fill="#000000">created_at </text>
<text text-anchor="start" x="207.028" y="-113.9" font-family="Arial" font-size="14.00" fill="#666666">[datetime]</text>
<polygon fill="none" stroke="#000000" points="130,-72.5 130,-102.5 288,-102.5 288,-72.5 130,-72.5"/>
<text text-anchor="start" x="137" y="-83.9" font-family="Arial" font-size="14.00" fill="#000000">updated_at </text>
<text text-anchor="start" x="210.9326" y="-83.9" font-family="Arial" font-size="14.00" fill="#666666">[datetime]</text>
<polygon fill="none" stroke="#000000" points="130,-42.5 130,-72.5 288,-72.5 288,-42.5 130,-42.5"/>
<text text-anchor="start" x="136.6424" y="-53.9" font-family="Arial" font-size="14.00" fill="#000000">published_at </text>
<text text-anchor="start" x="219.8976" y="-53.9" font-family="Arial" font-size="14.00" fill="#666666">[datetime]</text>
</g>
<!-- posts_tags -->
<g id="node2" class="node">
<title>posts_tags</title>
<polygon fill="#efefef" stroke="transparent" points="239,-589.5 239,-624.5 437,-624.5 437,-589.5 239,-589.5"/>
<polygon fill="none" stroke="#000000" points="239,-589.5 239,-624.5 437,-624.5 437,-589.5 239,-589.5"/>
<text text-anchor="start" x="245.8554" y="-602.3" font-family="Arial Bold" font-size="18.00" fill="#000000">posts_tags</text>
<text text-anchor="start" x="332.8908" y="-602.3" font-family="Arial" font-size="14.00" fill="#000000"> </text>
<text text-anchor="start" x="336.7814" y="-602.3" font-family="Arial" font-size="14.00" fill="#666666">[BASE TABLE]</text>
<polygon fill="none" stroke="#000000" points="239,-559.5 239,-589.5 437,-589.5 437,-559.5 239,-559.5"/>
<text text-anchor="start" x="246" y="-570.9" font-family="Arial" font-size="14.00" fill="#000000">id </text>
<text text-anchor="start" x="260.7798" y="-570.9" font-family="Arial" font-size="14.00" fill="#666666">[int]</text>
<polygon fill="none" stroke="#000000" points="239,-529.5 239,-559.5 437,-559.5 437,-529.5 239,-529.5"/>
<text text-anchor="start" x="246" y="-540.9" font-family="Arial" font-size="14.00" fill="#000000">post_id </text>
<text text-anchor="start" x="295.0182" y="-540.9" font-family="Arial" font-size="14.00" fill="#666666">[int]</text>
<polygon fill="none" stroke="#000000" points="239,-499.5 239,-529.5 437,-529.5 437,-499.5 239,-499.5"/>
<text text-anchor="start" x="246" y="-510.9" font-family="Arial" font-size="14.00" fill="#000000">tag_id </text>
<text text-anchor="start" x="288.0182" y="-510.9" font-family="Arial" font-size="14.00" fill="#666666">[int]</text>
<polygon fill="none" stroke="#000000" points="239,-469.5 239,-499.5 437,-499.5 437,-469.5 239,-469.5"/>
<text text-anchor="start" x="246" y="-480.9" font-family="Arial" font-size="14.00" fill="#000000">created_at </text>
<text text-anchor="start" x="316.028" y="-480.9" font-family="Arial" font-size="14.00" fill="#666666">[datetime]</text>
<polygon fill="none" stroke="#000000" points="239,-439.5 239,-469.5 437,-469.5 437,-439.5 239,-439.5"/>
<text text-anchor="start" x="246" y="-450.9" font-family="Arial" font-size="14.00" fill="#000000">updated_at </text>
<text text-anchor="start" x="319.9326" y="-450.9" font-family="Arial" font-size="14.00" fill="#666666">[datetime]</text>
</g>
<!-- posts_tags&#45;&gt;posts -->
<g id="edge1" class="edge">
<title>posts_tags:post_id&#45;&gt;posts:id</title>
<path fill="none" stroke="#000000" d="M228.9487,-544.4272C-46.3635,-540.3494 285.3004,-366.3332 288,-361 306.7674,-323.9237 329.5556,-267.5 288,-267.5"/>
<polygon fill="#000000" stroke="#000000" points="229.0003,-544.4275 238.9674,-548.9999 234.0001,-544.4637 239,-544.5 239,-544.5 239,-544.5 234.0001,-544.4637 239.0326,-540.0001 229.0003,-544.4275 229.0003,-544.4275"/>
<text text-anchor="start" x="7.495" y="-554.5" font-family="Arial" font-size="10.00" fill="#000000">FOREIGN KEY (post_id) REFERENCES posts (id)</text>
</g>
<!-- tags -->
<g id="node4" class="node">
<title>tags</title>
<polygon fill="#efefef" stroke="transparent" points="393,-222.5 393,-257.5 542,-257.5 542,-222.5 393,-222.5"/>
<polygon fill="none" stroke="#000000" points="393,-222.5 393,-257.5 542,-257.5 542,-222.5 393,-222.5"/>
<text text-anchor="start" x="401.8658" y="-235.3" font-family="Arial Bold" font-size="18.00" fill="#000000">tags</text>
<text text-anchor="start" x="435.8804" y="-235.3" font-family="Arial" font-size="14.00" fill="#000000"> </text>
<text text-anchor="start" x="439.771" y="-235.3" font-family="Arial" font-size="14.00" fill="#666666">[BASE TABLE]</text>
<polygon fill="none" stroke="#000000" points="393,-192.5 393,-222.5 542,-222.5 542,-192.5 393,-192.5"/>
<text text-anchor="start" x="400" y="-203.9" font-family="Arial" font-size="14.00" fill="#000000">id </text>
<text text-anchor="start" x="414.7798" y="-203.9" font-family="Arial" font-size="14.00" fill="#666666">[int]</text>
<polygon fill="none" stroke="#000000" points="393,-162.5 393,-192.5 542,-192.5 542,-162.5 393,-162.5"/>
<text text-anchor="start" x="400" y="-173.9" font-family="Arial" font-size="14.00" fill="#000000">name </text>
<text text-anchor="start" x="438.899" y="-173.9" font-family="Arial" font-size="14.00" fill="#666666">[varchar(255)]</text>
<polygon fill="none" stroke="#000000" points="393,-132.5 393,-162.5 542,-162.5 542,-132.5 393,-132.5"/>
<text text-anchor="start" x="400" y="-143.9" font-family="Arial" font-size="14.00" fill="#000000">created_at </text>
<text text-anchor="start" x="470.028" y="-143.9" font-family="Arial" font-size="14.00" fill="#666666">[datetime]</text>
<polygon fill="none" stroke="#000000" points="393,-102.5 393,-132.5 542,-132.5 542,-102.5 393,-102.5"/>
<text text-anchor="start" x="399.8037" y="-113.9" font-family="Arial" font-size="14.00" fill="#000000">updated_at </text>
<text text-anchor="start" x="473.7363" y="-113.9" font-family="Arial" font-size="14.00" fill="#666666">[datetime]</text>
</g>
<!-- posts_tags&#45;&gt;tags -->
<g id="edge2" class="edge">
<title>posts_tags:tag_id&#45;&gt;tags:id</title>
<path fill="none" stroke="#000000" d="M447.1246,-513.4883C517.5672,-497.9365 394.5725,-308.205 393,-301 384.1391,-260.4001 351.4444,-207.5 393,-207.5"/>
<polygon fill="#000000" stroke="#000000" points="446.9504,-513.5056 436.5525,-510.0223 441.9752,-514.0028 437,-514.5 437,-514.5 437,-514.5 441.9752,-514.0028 437.4475,-518.9777 446.9504,-513.5056 446.9504,-513.5056"/>
<text text-anchor="start" x="329.995" y="-498.5" font-family="Arial" font-size="10.00" fill="#000000">FOREIGN KEY (tag_id) REFERENCES tags (id)</text>
</g>
<!-- schema_migrations -->
<g id="node3" class="node">
<title>schema_migrations</title>
<polygon fill="#efefef" stroke="transparent" points="542,-544.5 542,-579.5 809,-579.5 809,-544.5 542,-544.5"/>
<polygon fill="none" stroke="#000000" points="542,-544.5 542,-579.5 809,-579.5 809,-544.5 542,-544.5"/>
<text text-anchor="start" x="548.8647" y="-557.3" font-family="Arial Bold" font-size="18.00" fill="#000000">schema_migrations</text>
<text text-anchor="start" x="704.8815" y="-557.3" font-family="Arial" font-size="14.00" fill="#000000"> </text>
<text text-anchor="start" x="708.7721" y="-557.3" font-family="Arial" font-size="14.00" fill="#666666">[BASE TABLE]</text>
<polygon fill="none" stroke="#000000" points="542,-514.5 542,-544.5 809,-544.5 809,-514.5 542,-514.5"/>
<text text-anchor="start" x="549" y="-525.9" font-family="Arial" font-size="14.00" fill="#000000">version </text>
<text text-anchor="start" x="598.0056" y="-525.9" font-family="Arial" font-size="14.00" fill="#666666">[bigint]</text>
<polygon fill="none" stroke="#000000" points="542,-484.5 542,-514.5 809,-514.5 809,-484.5 542,-484.5"/>
<text text-anchor="start" x="549" y="-495.9" font-family="Arial" font-size="14.00" fill="#000000">dirty </text>
<text text-anchor="start" x="579.331" y="-495.9" font-family="Arial" font-size="14.00" fill="#666666">[tinyint(1)]</text>
</g>
<!-- users -->
<g id="node5" class="node">
<title>users</title>
<polygon fill="#efefef" stroke="transparent" points="913,-589.5 913,-624.5 1077,-624.5 1077,-589.5 913,-589.5"/>
<polygon fill="none" stroke="#000000" points="913,-589.5 913,-624.5 1077,-624.5 1077,-589.5 913,-589.5"/>
<text text-anchor="start" x="924.3708" y="-602.3" font-family="Arial Bold" font-size="18.00" fill="#000000">users</text>
<text text-anchor="start" x="968.3754" y="-602.3" font-family="Arial" font-size="14.00" fill="#000000"> </text>
<text text-anchor="start" x="972.266" y="-602.3" font-family="Arial" font-size="14.00" fill="#666666">[BASE TABLE]</text>
<polygon fill="none" stroke="#000000" points="913,-559.5 913,-589.5 1077,-589.5 1077,-559.5 913,-559.5"/>
<text text-anchor="start" x="920" y="-570.9" font-family="Arial" font-size="14.00" fill="#000000">id </text>
<text text-anchor="start" x="934.7798" y="-570.9" font-family="Arial" font-size="14.00" fill="#666666">[int]</text>
<polygon fill="none" stroke="#000000" points="913,-529.5 913,-559.5 1077,-559.5 1077,-529.5 913,-529.5"/>
<text text-anchor="start" x="920" y="-540.9" font-family="Arial" font-size="14.00" fill="#000000">email </text>
<text text-anchor="start" x="957.3296" y="-540.9" font-family="Arial" font-size="14.00" fill="#666666">[varchar(64)]</text>
<polygon fill="none" stroke="#000000" points="913,-499.5 913,-529.5 1077,-529.5 1077,-499.5 913,-499.5"/>
<text text-anchor="start" x="919.5463" y="-510.9" font-family="Arial" font-size="14.00" fill="#000000">password </text>
<text text-anchor="start" x="983.3345" y="-510.9" font-family="Arial" font-size="14.00" fill="#666666">[varchar(255)]</text>
<polygon fill="none" stroke="#000000" points="913,-469.5 913,-499.5 1077,-499.5 1077,-469.5 913,-469.5"/>
<text text-anchor="start" x="920" y="-480.9" font-family="Arial" font-size="14.00" fill="#000000">created_at </text>
<text text-anchor="start" x="990.028" y="-480.9" font-family="Arial" font-size="14.00" fill="#666666">[datetime]</text>
<polygon fill="none" stroke="#000000" points="913,-439.5 913,-469.5 1077,-469.5 1077,-439.5 913,-439.5"/>
<text text-anchor="start" x="920" y="-450.9" font-family="Arial" font-size="14.00" fill="#000000">updated_at </text>
<text text-anchor="start" x="993.9326" y="-450.9" font-family="Arial" font-size="14.00" fill="#666666">[datetime]</text>
</g>
</g>
</svg>
