<?xml version="1.0" encoding="UTF-8" standalone="no"?>
<!DOCTYPE svg PUBLIC "-//W3C//DTD SVG 1.1//EN"
 "http://www.w3.org/Graphics/SVG/1.1/DTD/svg11.dtd">
<!-- Generated by graphviz version 2.40.1 (20161225.0304)
 -->
<!-- Title: tags Pages: 1 -->
<svg width="379pt" height="442pt"
 viewBox="0.00 0.00 379.00 442.00" xmlns="http://www.w3.org/2000/svg" xmlns:xlink="http://www.w3.org/1999/xlink">
<g id="graph0" class="graph" transform="scale(1 1) rotate(0) translate(4 438)">
<title>tags</title>
<polygon fill="#ffffff" stroke="transparent" points="-4,4 -4,-438 375,-438 375,4 -4,4"/>
<!-- tags -->
<g id="node1" class="node">
<title>tags</title>
<polygon fill="#efefef" stroke="transparent" points="156,-105.5 156,-140.5 301,-140.5 301,-105.5 156,-105.5"/>
<polygon fill="none" stroke="#000000" points="156,-105.5 156,-140.5 301,-140.5 301,-105.5 156,-105.5"/>
<text text-anchor="start" x="162.8658" y="-118.3" font-family="Arial Bold" font-size="18.00" fill="#000000">tags</text>
<text text-anchor="start" x="196.8804" y="-118.3" font-family="Arial" font-size="14.00" fill="#000000"> </text>
<text text-anchor="start" x="200.771" y="-118.3" font-family="Arial" font-size="14.00" fill="#666666">[BASE TABLE]</text>
<polygon fill="none" stroke="#000000" points="156,-75.5 156,-105.5 301,-105.5 301,-75.5 156,-75.5"/>
<text text-anchor="start" x="163" y="-86.9" font-family="Arial" font-size="14.00" fill="#000000">id </text>
<text text-anchor="start" x="177.7798" y="-86.9" font-family="Arial" font-size="14.00" fill="#666666">[varchar(255)]</text>
<polygon fill="none" stroke="#000000" points="156,-45.5 156,-75.5 301,-75.5 301,-45.5 156,-45.5"/>
<text text-anchor="start" x="163" y="-56.9" font-family="Arial" font-size="14.00" fill="#000000">name </text>
<text text-anchor="start" x="201.899" y="-56.9" font-family="Arial" font-size="14.00" fill="#666666">[varchar(255)]</text>
<polygon fill="none" stroke="#000000" stroke-width="3" points="154,-44.5 154,-142.5 302,-142.5 302,-44.5 154,-44.5"/>
</g>
<!-- posts_tags -->
<g id="node2" class="node">
<title>posts_tags</title>
<polygon fill="#efefef" stroke="transparent" points="130,-355.5 130,-390.5 328,-390.5 328,-355.5 130,-355.5"/>
<polygon fill="none" stroke="#000000" points="130,-355.5 130,-390.5 328,-390.5 328,-355.5 130,-355.5"/>
<text text-anchor="start" x="136.8554" y="-368.3" font-family="Arial Bold" font-size="18.00" fill="#000000">posts_tags</text>
<text text-anchor="start" x="223.8908" y="-368.3" font-family="Arial" font-size="14.00" fill="#000000"> </text>
<text text-anchor="start" x="227.7814" y="-368.3" font-family="Arial" font-size="14.00" fill="#666666">[BASE TABLE]</text>
<polygon fill="none" stroke="#000000" points="130,-325.5 130,-355.5 328,-355.5 328,-325.5 130,-325.5"/>
<text text-anchor="start" x="137" y="-336.9" font-family="Arial" font-size="14.00" fill="#000000">id </text>
<text text-anchor="start" x="151.7798" y="-336.9" font-family="Arial" font-size="14.00" fill="#666666">[varchar(255)]</text>
<polygon fill="none" stroke="#000000" points="130,-295.5 130,-325.5 328,-325.5 328,-295.5 130,-295.5"/>
<text text-anchor="start" x="137" y="-306.9" font-family="Arial" font-size="14.00" fill="#000000">post_id </text>
<text text-anchor="start" x="186.0182" y="-306.9" font-family="Arial" font-size="14.00" fill="#666666">[varchar(255)]</text>
<polygon fill="none" stroke="#000000" points="130,-265.5 130,-295.5 328,-295.5 328,-265.5 130,-265.5"/>
<text text-anchor="start" x="137" y="-276.9" font-family="Arial" font-size="14.00" fill="#000000">tag_id </text>
<text text-anchor="start" x="179.0182" y="-276.9" font-family="Arial" font-size="14.00" fill="#666666">[varchar(255)]</text>
</g>
<!-- posts_tags&#45;&gt;tags -->
<g id="edge1" class="edge">
<title>posts_tags:tag_id&#45;&gt;tags:id</title>
<path fill="none" stroke="#000000" d="M229.9599,-255.4525C237.3375,-219.835 285.1725,-227.672 301,-187 316.554,-147.0309 343.8889,-90.5 301,-90.5"/>
<polygon fill="#000000" stroke="#000000" points="229.9511,-255.5453 224.5204,-265.072 229.4756,-260.5227 229,-265.5 229,-265.5 229,-265.5 229.4756,-260.5227 233.4796,-265.928 229.9511,-255.5453 229.9511,-255.5453"/>
<text text-anchor="start" x="7.495" y="-275.5" font-family="Arial" font-size="10.00" fill="#000000">FOREIGN KEY (tag_id) REFERENCES tags (id)</text>
</g>
</g>
</svg>
